{
  "accessors": [
    {
      "bufferView": 2,
      "componentType": 5126,
      "count": 4,
      "max": [
        10.909500122070313,
        -9.703300476074219,
        70.68080139160156
      ],
      "min": [
        -13.309499740600586,
        -13.616399765014648,
        64.71019744873047
      ],
      "type": "VEC3"
    },
    {
      "bufferView": 2,
      "byteOffset": 48,
      "componentType": 5126,
      "count": 4,
      "max": [
        -7.916720649618413e-17,
        -0.8363780975341797,
        0.5481530427932739
      ],
      "min": [
        -7.916720649618413e-17,
        -0.8363780975341797,
        0.5481530427932739
      ],
      "type": "VEC3"
    },
    {
      "bufferView": 1,
      "componentType": 5126,
      "count": 4,
      "max": [
        5.149519920349121,
        3.5837199687957764
      ],
      "min": [
        0.3819960057735443,
        2.1784698963165283
      ],
      "type": "VEC2"
    },
    {
      "bufferView": 0,
      "componentType": 5125,
      "count": 6,
      "type": "SCALAR"
    },
    {
      "bufferView": 2,
      "byteOffset": 96,
      "componentType": 5126,
      "count": 237,
      "max": [
        12.850099563598633,
        26.149599075317383,
        68.87190246582031
      ],
      "min": [
        -15.250100135803223,
        -7.9913201332092285,
        0.0
      ],
      "type": "VEC3"
    },
    {
      "bufferView": 2,
      "byteOffset": 2940,
      "componentType": 5126,
      "count": 237,
      "max": [
        1.0,
        1.0,
        1.0
      ],
      "min": [
        -1.0,
        -1.0,
        -0.4642901122570038
      ],
      "type": "VEC3"
    },
    {
      "bufferView": 1,
      "byteOffset": 32,
      "componentType": 5126,
      "count": 237,
      "max": [
        8.159299850463867,
        4.779059886932373
      ],
      "min": [
        -8.159299850463867,
        -4.744369983673096
      ],
      "type": "VEC2"
    },
    {
      "bufferView": 0,
      "byteOffset": 24,
      "componentType": 5125,
      "count": 393,
      "type": "SCALAR"
    },
    {
      "bufferView": 2,
      "byteOffset": 5784,
      "componentType": 5126,
      "count": 328,
      "max": [
        12.057000160217285,
        -18.231700897216797,
        84.28469848632813
      ],
      "min": [
        -14.529000282287598,
        -19.230499267578125,
        83.2156982421875
      ],
      "type": "VEC3"
    },
    {
      "bufferView": 2,
      "byteOffset": 9720,
      "componentType": 5126,
      "count": 328,
      "max": [
        1.0,
        0.7558531761169434,
        0.7558531761169434
      ],
      "min": [
        -1.0,
        -0.7558531761169434,
        -0.7558531761169434
      ],
      "type": "VEC3"
    },
    {
      "bufferView": 1,
      "byteOffset": 1928,
      "componentType": 5126,
      "count": 328,
      "max": [
        0.050645701587200165,
        4.513010025024414
      ],
      "min": [
        -0.050645701587200165,
        -1.8192399999373676e-15
      ],
      "type": "VEC2"
    },
    {
      "bufferView": 0,
      "byteOffset": 1596,
      "componentType": 5125,
      "count": 708,
      "type": "SCALAR"
    },
    {
      "bufferView": 2,
      "byteOffset": 13656,
      "componentType": 5126,
      "count": 3418,
      "max": [
        13.399999618530273,
        26.149599075317383,
        71.84369659423828
      ],
      "min": [
        -15.250100135803223,
        -16.757600784301758,
        0.0
      ],
      "type": "VEC3"
    },
    {
      "bufferView": 2,
      "byteOffset": 54672,
      "componentType": 5126,
      "count": 3418,
      "max": [
        1.0,
        1.0,
        1.0
      ],
      "min": [
        -1.0,
        -1.0,
        -1.0
      ],
      "type": "VEC3"
    },
    {
      "bufferView": 1,
      "byteOffset": 4552,
      "componentType": 5126,
      "count": 3418,
      "max": [
        1.6187800168991089,
        21.74799919128418
      ],
      "min": [
        1.3320000171661377,
        21.126399993896484
      ],
      "type": "VEC2"
    },
    {
      "bufferView": 0,
      "byteOffset": 4428,
      "componentType": 5125,
      "count": 8244,
      "type": "SCALAR"
    },
    {
      "bufferView": 2,
      "byteOffset": 95688,
      "componentType": 5126,
      "count": 1742,
      "max": [
        12.850099563598633,
        26.149599075317383,
        83.70320129394531
      ],
      "min": [
        -15.250100135803223,
        -18.715999603271484,
        5.737820148468018
      ],
      "type": "VEC3"
    },
    {
      "bufferView": 2,
      "byteOffset": 116592,
      "componentType": 5126,
      "count": 1742,
      "max": [
        1.0,
        1.0,
        1.0
      ],
      "min": [
        -1.0,
        -1.0,
        -1.0
      ],
      "type": "VEC3"
    },
    {
      "bufferView": 1,
      "byteOffset": 31896,
      "componentType": 5126,
      "count": 1742,
      "max": [
        2.591639995574951,
        21.77589988708496
      ],
      "min": [
        2.3546199798583984,
        21.175899505615234
      ],
      "type": "VEC2"
    },
    {
      "bufferView": 0,
      "byteOffset": 37404,
      "componentType": 5125,
      "count": 4842,
      "type": "SCALAR"
    },
    {
      "bufferView": 2,
      "byteOffset": 137496,
      "componentType": 5126,
      "count": 74,
      "max": [
        7.599999904632568,
        6.792459964752197,
        49.98460006713867
      ],
      "min": [
        -9.199999809265137,
        -16.757600784301758,
        8.303739547729492
      ],
      "type": "VEC3"
    },
    {
      "bufferView": 2,
      "byteOffset": 138384,
      "componentType": 5126,
      "count": 74,
      "max": [
        1.0,
        0.0,
        2.780460029596031e-31
      ],
      "min": [
        -1.0,
        -4.278129875410898e-31,
        0.0
      ],
      "type": "VEC3"
    },
    {
      "bufferView": 1,
      "byteOffset": 45832,
      "componentType": 5126,
      "count": 74,
      "max": [
        -1.0456700325012207,
        -5.757130146026611
      ],
      "min": [
        -2.4675700664520264,
        -7.174210071563721
      ],
      "type": "VEC2"
    },
    {
      "bufferView": 0,
      "byteOffset": 56772,
      "componentType": 5125,
      "count": 198,
      "type": "SCALAR"
    }
  ],
  "asset": {
    "extras": {
      "author": "haykal12321 (https://sketchfab.com/haykal12321)",
      "license": "CC-BY-NC-4.0 (http://creativecommons.org/licenses/by-nc/4.0/)",
      "source": "https://sketchfab.com/3d-models/star-wars-jedi-fallen-order-bd1-d67b698acba24a829e00fdd4409e1836",
      "title": "Star Wars Jedi Fallen Order BD1"
    },
    "generator": "Sketchfab-12.68.0",
    "version": "2.0"
  },
  "bufferViews": [
    {
      "buffer": 0,
      "byteLength": 57564,
      "name": "floatBufferViews",
      "target": 34963
    },
    {
      "buffer": 0,
      "byteLength": 46424,
      "byteOffset": 57564,
      "byteStride": 8,
      "name": "floatBufferViews",
      "target": 34962
    },
    {
      "buffer": 0,
      "byteLength": 139272,
      "byteOffset": 103988,
      "byteStride": 12,
      "name": "floatBufferViews",
      "target": 34962
    }
  ],
  "buffers": [
    {
      "byteLength": 243260,
      "uri": "scene.bin"
    }
  ],
  "images": [
    {
      "uri": "textures/material_baseColor.jpeg"
    },
    {
      "uri": "textures/material_4_baseColor.jpeg"
    },
    {
      "uri": "textures/material_5_baseColor.jpeg"
    }
  ],
  "materials": [
    {
      "doubleSided": true,
      "name": "FrontColor",
      "pbrMetallicRoughness": {
        "metallicFactor": 0.0
      }
    },
    {
      "doubleSided": true,
      "name": "M_0136_Charcoal",
      "pbrMetallicRoughness": {
        "baseColorFactor": [
          0.137255,
          0.137255,
          0.137255,
          1.0
        ],
        "metallicFactor": 0.0
      }
    },
    {
      "doubleSided": true,
      "name": "M_0137_Black",
      "pbrMetallicRoughness": {
        "baseColorFactor": [
          0.0,
          0.0,
          0.0,
          1.0
        ],
        "metallicFactor": 0.0
      }
    },
    {
      "doubleSided": true,
      "name": "material",
      "pbrMetallicRoughness": {
        "baseColorTexture": {
          "index": 0
        },
        "roughnessFactor": 0.5
      }
    },
    {
      "doubleSided": true,
      "name": "material_4",
      "pbrMetallicRoughness": {
        "baseColorTexture": {
          "index": 1
        },
        "roughnessFactor": 0.5
      }
    },
    {
      "doubleSided": true,
      "name": "material_5",
      "pbrMetallicRoughness": {
        "baseColorTexture": {
          "index": 2
        }
      }
    }
  ],
  "meshes": [
    {
      "name": "Object_0",
      "primitives": [
        {
          "attributes": {
            "NORMAL": 1,
            "POSITION": 0,
            "TEXCOORD_0": 2
          },
          "indices": 3,
          "material": 2,
          "mode": 4
        }
      ]
    },
    {
      "name": "Object_1",
      "primitives": [
        {
          "attributes": {
            "NORMAL": 5,
            "POSITION": 4,
            "TEXCOORD_0": 6
          },
          "indices": 7,
          "material": 0,
          "mode": 4
        }
      ]
    },
    {
      "name": "Object_2",
      "primitives": [
        {
          "attributes": {
            "NORMAL": 9,
            "POSITION": 8,
            "TEXCOORD_0": 10
          },
          "indices": 11,
          "material": 1,
          "mode": 4
        }
      ]
    },
    {
      "name": "Object_3",
      "primitives": [
        {
          "attributes": {
            "NORMAL": 13,
            "POSITION": 12,
            "TEXCOORD_0": 14
          },
          "indices": 15,
          "material": 3,
          "mode": 4
        }
      ]
    },
    {
      "name": "Object_4",
      "primitives": [
        {
          "attributes": {
            "NORMAL": 17,
            "POSITION": 16,
            "TEXCOORD_0": 18
          },
          "indices": 19,
          "material": 4,
          "mode": 4
        }
      ]
    },
    {
      "name": "Object_5",
      "primitives": [
        {
          "attributes": {
            "NORMAL": 21,
            "POSITION": 20,
            "TEXCOORD_0": 22
          },
          "indices": 23,
          "material": 5,
          "mode": 4
        }
      ]
    }
  ],
  "nodes": [
    {
      "children": [
        1
      ],
      "matrix": [
        0.004278237000107765,
        0.0,
        0.0,
        0.0,
        0.0,
        9.499594444645798e-19,
        -0.004278237000107765,
        0.0,
        0.0,
        0.004278237000107765,
        9.499594444645798e-19,
        0.0,
        0.0,
        0.0,
        0.0,
        1.0
      ],
      "name": "Sketchfab_model"
    },
    {
      "children": [
        2,
        3,
        4,
        5,
        6,
        7
      ],
      "name": "Untitled.obj.cleaner.materialmerger.gles"
    },
    {
      "mesh": 0,
      "name": "Object_2"
    },
    {
      "mesh": 1,
      "name": "Object_3"
    },
    {
      "mesh": 2,
      "name": "Object_4"
    },
    {
      "mesh": 3,
      "name": "Object_5"
    },
    {
      "mesh": 4,
      "name": "Object_6"
    },
    {
      "mesh": 5,
      "name": "Object_7"
    }
  ],
  "samplers": [
    {
      "magFilter": 9729,
      "minFilter": 9987,
      "wrapS": 10497,
      "wrapT": 10497
    }
  ],
  "scene": 0,
  "scenes": [
    {
      "name": "Sketchfab_Scene",
      "nodes": [
        0
      ]
    }
  ],
  "textures": [
    {
      "sampler": 0,
      "source": 0
    },
    {
      "sampler": 0,
      "source": 1
    },
    {
      "sampler": 0,
      "source": 2
    }
  ]
}
